<svg width="234" height="40" viewBox="0 0 234 40" fill="none" xmlns="http://www.w3.org/2000/svg">
<g clip-path="url(#clip0_3505_18085)">
<path fill-rule="evenodd" clip-rule="evenodd" d="M30 40H10C8.68674 40.0002 7.3863 39.7416 6.17297 39.2391C4.95964 38.7366 3.85718 38.0001 2.92857 37.0714C1.99995 36.1428 1.26336 35.0404 0.76087 33.827C0.258381 32.6137 -0.000164111 31.3133 7.81517e-08 30V10C-0.000164111 8.68674 0.258381 7.3863 0.76087 6.17297C1.26336 4.95964 1.99995 3.85718 2.92857 2.92857C3.85718 1.99995 4.95964 1.26336 6.17297 0.76087C7.3863 0.258381 8.68674 -0.000164111 10 7.81517e-08H30C31.3133 -0.000164111 32.6137 0.258381 33.827 0.76087C35.0404 1.26336 36.1428 1.99995 37.0714 2.92857C38.0001 3.85718 38.7366 4.95964 39.2391 6.17297C39.7416 7.3863 40.0002 8.68674 40 10V30C40.0002 31.3133 39.7416 32.6137 39.2391 33.827C38.7366 35.0404 38.0001 36.1428 37.0714 37.0714C36.1428 38.0001 35.0404 38.7366 33.827 39.2391C32.6137 39.7416 31.3133 40.0002 30 40Z" fill="#FF5749"/>
<path fill-rule="evenodd" clip-rule="evenodd" d="M18.75 11.25H30C31.4432 11.2518 32.8319 10.6988 33.8789 9.70541C34.9258 8.71201 35.5508 7.3542 35.6247 5.91286C35.6985 4.47153 35.2156 3.05694 34.2757 1.96173C33.3358 0.866514 32.0109 0.17447 30.575 0.0287501C30.3812 0.0181251 30.1938 7.81517e-08 30 7.81517e-08H10C8.68674 -0.000164111 7.3863 0.258381 6.17297 0.76087C4.95964 1.26336 3.85718 1.99995 2.92857 2.92857C1.99995 3.85718 1.26336 4.95964 0.76087 6.17297C0.258381 7.3863 -0.000164111 8.68674 7.81517e-08 10V30C7.81517e-08 25.0272 1.97544 20.2581 5.49175 16.7417C9.00805 13.2254 13.7772 11.25 18.75 11.25Z" fill="#E12F21"/>
<path fill-rule="evenodd" clip-rule="evenodd" d="M30 20C28.0222 20 26.0888 20.5865 24.4443 21.6853C22.7998 22.7841 21.5181 24.3459 20.7612 26.1732C20.0043 28.0004 19.8063 30.0111 20.1922 31.9509C20.578 33.8907 21.5304 35.6725 22.9289 37.0711C24.3275 38.4696 26.1093 39.422 28.0491 39.8079C29.9889 40.1937 31.9996 39.9957 33.8268 39.2388C35.6541 38.4819 37.2159 37.2002 38.3147 35.5557C39.4135 33.9112 40 31.9778 40 30V10C40.0002 11.3133 39.7416 12.6137 39.2391 13.827C38.7366 15.0404 38.0001 16.1428 37.0714 17.0714C36.1428 18.0001 35.0404 18.7366 33.827 19.2391C32.6137 19.7416 31.3133 20.0002 30 20Z" fill="#E12F21"/>
<path fill-rule="evenodd" clip-rule="evenodd" d="M20.65 6.55122C20.627 6.44494 20.6328 6.33445 20.6667 6.23114C20.7006 6.12782 20.7614 6.03541 20.8429 5.96341C20.9244 5.89141 21.0236 5.84243 21.1303 5.8215C21.237 5.80057 21.3474 5.80846 21.45 5.84434C24.375 7.35122 31.875 12.8993 31.875 21.875C31.875 25.0244 30.6239 28.0449 28.3969 30.2719C26.1699 32.4989 23.1494 33.75 20 33.75C16.8506 33.75 13.8301 32.4989 11.6031 30.2719C9.37611 28.0449 8.125 25.0244 8.125 21.875C8.125 18.0762 10.6 14.8287 13.1125 12.9575C13.2023 12.8952 13.3069 12.8577 13.4157 12.8487C13.5246 12.8397 13.634 12.8595 13.7328 12.9061C13.8316 12.9527 13.9164 13.0245 13.9786 13.1143C14.0409 13.204 14.0784 13.3086 14.0875 13.4175C14.2 14.8362 14.4938 17.1487 15.2313 17.1487C15.6188 17.1487 18.1625 16.4356 19.8312 13.51C21.2375 11.0512 20.9563 8.11997 20.65 6.55122Z" fill="white"/>
</g>
<path d="M56.8851 32L61.4743 9.11956H65.6045L61.7693 28.3286H70.456L69.7348 32H56.8851ZM85.3832 32C84.5965 32 83.9518 31.7924 83.4492 31.3772C82.9465 30.962 82.6952 30.3829 82.6952 29.6398C82.6952 29.465 82.7061 29.2793 82.728 29.0826C82.7717 28.8859 82.8045 28.7329 82.8263 28.6237L82.9247 28.0992H82.7608C82.0615 29.4978 81.2857 30.5686 80.4334 31.3116C79.5811 32.0328 78.4994 32.3934 77.1882 32.3934C76.4015 32.3934 75.7021 32.2513 75.0903 31.9672C74.5002 31.6613 74.0085 31.2351 73.6152 30.6888C73.2218 30.1425 72.9268 29.4978 72.7301 28.7548C72.5334 28.0118 72.4351 27.1813 72.4351 26.2635C72.4351 24.6026 72.6318 23.062 73.0251 21.6415C73.4185 20.1992 73.9648 18.9536 74.6641 17.9046C75.3853 16.8338 76.2376 16.0034 77.221 15.4133C78.2262 14.8014 79.3189 14.4955 80.499 14.4955C81.6572 14.4955 82.6297 14.8014 83.4164 15.4133C84.2031 16.0252 84.6729 16.8229 84.8259 17.8063H84.9898L85.5799 14.8888H89.5462L86.7599 28.7548H88.8251L88.2023 32H85.3832ZM78.9911 29.0826C79.6248 29.0826 80.193 28.9296 80.6956 28.6237C81.2201 28.2959 81.6681 27.9134 82.0396 27.4764C82.4767 26.9956 82.8373 26.4493 83.1214 25.8374C83.4054 25.2036 83.624 24.5371 83.777 23.8378L84.367 20.9204C84.5418 20.0462 84.3451 19.3141 83.777 18.7241C83.2306 18.1122 82.433 17.8063 81.384 17.8063C79.1331 17.8063 77.7236 19.2158 77.1554 22.0349L76.6965 24.395C76.6528 24.6354 76.6091 24.9304 76.5654 25.2801C76.5216 25.6298 76.4998 25.9357 76.4998 26.1979C76.4998 27.0721 76.7074 27.7714 77.1226 28.2959C77.5597 28.8203 78.1825 29.0826 78.9911 29.0826ZM95.4103 32C93.0501 32 91.87 31.0275 91.87 29.0826C91.87 28.9078 91.881 28.7111 91.9028 28.4925C91.9247 28.2522 91.9574 28.0118 92.0011 27.7714L93.9352 18.1341H91.4767L92.0995 14.8888H93.3123C93.9898 14.8888 94.4378 14.7577 94.6563 14.4955C94.8967 14.2114 95.0715 13.7743 95.1808 13.1843L95.7708 10.2013H99.475L98.5571 14.8888H101.999L101.343 18.1341H97.9015L95.7708 28.7548H99.0161L98.3605 32H95.4103ZM107.105 12.3976C106.384 12.3976 105.86 12.2555 105.532 11.9714C105.204 11.6873 105.04 11.3158 105.04 10.8569C105.04 10.5291 105.095 10.1139 105.204 9.61126C105.335 9.06493 105.586 8.59508 105.958 8.20172C106.351 7.78651 107.018 7.5789 107.958 7.5789C108.679 7.5789 109.203 7.72095 109.531 8.00504C109.859 8.28913 110.023 8.66064 110.023 9.11956C110.023 9.44736 109.968 9.86257 109.859 10.3652C109.728 10.9115 109.465 11.3923 109.072 11.8075C108.701 12.2009 108.045 12.3976 107.105 12.3976ZM104.417 32C103.587 32 102.92 31.7815 102.418 31.3444C101.937 30.8855 101.697 30.2845 101.697 29.5415C101.697 29.323 101.729 29.0498 101.795 28.722L104.548 14.8888H108.515L105.761 28.7548H107.826L107.171 32H104.417ZM109.542 32L112.984 14.8888H116.951L116.197 18.6913H116.361C116.994 17.3364 117.748 16.2984 118.622 15.5772C119.518 14.8561 120.622 14.4955 121.933 14.4955C123.31 14.4955 124.348 14.8888 125.047 15.6756C125.768 16.4623 126.129 17.5768 126.129 19.0191C126.129 19.3906 126.096 19.7731 126.031 20.1664C125.987 20.5379 125.921 20.9422 125.834 21.3793L124.359 28.7548H126.26L125.604 32H122.851C122.064 32 121.441 31.8033 120.983 31.41C120.524 30.9947 120.294 30.4156 120.294 29.6726C120.294 29.3667 120.327 29.0607 120.392 28.7548L121.802 21.7071C121.933 21.0952 121.999 20.4942 121.999 19.9042C121.999 19.2704 121.846 18.7787 121.54 18.4291C121.234 18.0576 120.72 17.8718 119.999 17.8718C119.431 17.8718 118.906 18.0139 118.426 18.298C117.945 18.5602 117.508 18.9208 117.114 19.3797C116.677 19.8823 116.295 20.4396 115.967 21.0515C115.661 21.6634 115.443 22.308 115.312 22.9855L113.509 32H109.542ZM135.048 32.3934C133.037 32.3934 131.431 31.7815 130.229 30.5577C129.027 29.3339 128.426 27.5747 128.426 25.2801C128.426 23.7722 128.645 22.3627 129.082 21.0515C129.519 19.7403 130.131 18.6039 130.917 17.6424C131.704 16.659 132.633 15.8941 133.704 15.3478C134.775 14.7796 135.955 14.4955 137.244 14.4955C139.254 14.4955 140.861 15.1074 142.063 16.3312C143.265 17.5549 143.866 19.3141 143.866 21.6087C143.866 23.1166 143.647 24.5262 143.21 25.8374C142.773 27.1486 142.161 28.2959 141.374 29.2793C140.588 30.2408 139.648 31.0057 138.555 31.5739C137.484 32.1202 136.315 32.3934 135.048 32.3934ZM135.277 29.1154C136.261 29.1154 137.091 28.7548 137.768 28.0336C138.468 27.3125 138.949 26.2635 139.211 24.8867L139.801 22.0349C139.844 21.8163 139.877 21.6306 139.899 21.4776C139.921 21.3028 139.932 21.0952 139.932 20.8548C139.932 19.937 139.681 19.1939 139.178 18.6258C138.697 18.0576 137.976 17.7735 137.014 17.7735C136.031 17.7735 135.19 18.1341 134.49 18.8552C133.813 19.5764 133.343 20.6253 133.081 22.0021L132.491 24.8867C132.447 25.0616 132.414 25.2364 132.393 25.4112C132.371 25.586 132.36 25.7937 132.36 26.034C132.36 26.9519 132.6 27.6949 133.081 28.2631C133.584 28.8313 134.316 29.1154 135.277 29.1154ZM145.305 32L149.894 9.11956H163.859L163.105 12.7909H153.304L152.124 18.6585H160.876L160.122 22.3299H151.37L149.436 32H145.305ZM165.883 32C165.031 32 164.353 31.7815 163.851 31.3444C163.37 30.8855 163.13 30.2845 163.13 29.5415C163.13 29.4104 163.13 29.3011 163.13 29.2137C163.152 29.1044 163.184 28.9515 163.228 28.7548L167.424 7.7428H171.39L167.194 28.7548H169.391L168.768 32H165.883ZM184.416 32C183.629 32 182.985 31.7924 182.482 31.3772C181.979 30.962 181.728 30.3829 181.728 29.6398C181.728 29.465 181.739 29.2793 181.761 29.0826C181.804 28.8859 181.837 28.7329 181.859 28.6237L181.957 28.0992H181.794C181.094 29.4978 180.318 30.5686 179.466 31.3116C178.614 32.0328 177.532 32.3934 176.221 32.3934C175.434 32.3934 174.735 32.2513 174.123 31.9672C173.533 31.6613 173.041 31.2351 172.648 30.6888C172.255 30.1425 171.96 29.4978 171.763 28.7548C171.566 28.0118 171.468 27.1813 171.468 26.2635C171.468 24.6026 171.664 23.062 172.058 21.6415C172.451 20.1992 172.998 18.9536 173.697 17.9046C174.418 16.8338 175.27 16.0034 176.254 15.4133C177.259 14.8014 178.352 14.4955 179.532 14.4955C180.69 14.4955 181.662 14.8014 182.449 15.4133C183.236 16.0252 183.706 16.8229 183.859 17.8063H184.023L184.613 14.8888H188.579L185.793 28.7548H187.858L187.235 32H184.416ZM178.024 29.0826C178.658 29.0826 179.226 28.9296 179.728 28.6237C180.253 28.2959 180.701 27.9134 181.072 27.4764C181.509 26.9956 181.87 26.4493 182.154 25.8374C182.438 25.2036 182.657 24.5371 182.81 23.8378L183.4 20.9204C183.575 20.0462 183.378 19.3141 182.81 18.7241C182.263 18.1122 181.466 17.8063 180.417 17.8063C178.166 17.8063 176.756 19.2158 176.188 22.0349L175.729 24.395C175.685 24.6354 175.642 24.9304 175.598 25.2801C175.554 25.6298 175.533 25.9357 175.533 26.1979C175.533 27.0721 175.74 27.7714 176.155 28.2959C176.592 28.8203 177.215 29.0826 178.024 29.0826ZM189.559 32L193.001 14.8888H196.967L196.213 18.6913H196.377C197.011 17.3583 197.743 16.3312 198.573 15.61C199.426 14.867 200.507 14.4955 201.818 14.4955C203.064 14.4955 204.026 14.867 204.703 15.61C205.381 16.353 205.741 17.3801 205.785 18.6913H205.949C206.583 17.402 207.336 16.3858 208.211 15.6428C209.085 14.8779 210.199 14.4955 211.554 14.4955C212.865 14.4955 213.86 14.8888 214.537 15.6756C215.215 16.4623 215.553 17.544 215.553 18.9208C215.553 19.3797 215.521 19.8386 215.455 20.2975C215.411 20.7346 215.335 21.1935 215.226 21.6743L213.816 28.7548H215.717L215.062 32H212.308C211.521 32 210.899 31.8033 210.44 31.41C209.981 30.9947 209.751 30.4156 209.751 29.6726C209.751 29.3667 209.784 29.0607 209.85 28.7548L211.259 21.7071C211.325 21.3793 211.379 21.0624 211.423 20.7565C211.467 20.4505 211.489 20.1664 211.489 19.9042C211.489 19.2704 211.347 18.7787 211.062 18.4291C210.778 18.0576 210.319 17.8718 209.686 17.8718C209.183 17.8718 208.691 18.0139 208.211 18.298C207.752 18.5602 207.336 18.9099 206.965 19.3469C206.528 19.8495 206.145 20.4287 205.818 21.0843C205.512 21.718 205.304 22.3518 205.195 22.9855L203.392 32H199.426L201.491 21.7071C201.556 21.4011 201.611 21.0952 201.655 20.7892C201.698 20.4614 201.72 20.1664 201.72 19.9042C201.72 19.2704 201.578 18.7787 201.294 18.4291C201.01 18.0576 200.551 17.8718 199.917 17.8718C199.349 17.8718 198.836 18.0139 198.377 18.298C197.918 18.5821 197.502 18.9426 197.131 19.3797C196.694 19.8823 196.311 20.4505 195.984 21.0843C195.678 21.6962 195.459 22.3299 195.328 22.9855L193.525 32H189.559ZM224.9 32.3934C222.584 32.3934 220.835 31.7487 219.655 30.4593C218.497 29.17 217.918 27.378 217.918 25.0834C217.918 23.7067 218.137 22.3845 218.574 21.117C219.011 19.8277 219.623 18.6913 220.409 17.7079C221.218 16.7245 222.179 15.9487 223.294 15.3805C224.43 14.7905 225.698 14.4955 227.096 14.4955C227.774 14.4955 228.462 14.5829 229.162 14.7577C229.861 14.9107 230.495 15.1729 231.063 15.5444C231.631 15.8941 232.101 16.3749 232.472 16.9868C232.844 17.5987 233.03 18.3417 233.03 19.2158C233.03 21.0078 232.145 22.4064 230.374 23.4116C228.626 24.4169 225.818 24.9632 221.95 25.0506C221.884 25.4877 221.852 25.8046 221.852 26.0013C221.852 26.941 222.114 27.6949 222.638 28.2631C223.163 28.8313 224.015 29.1154 225.195 29.1154C226.048 29.1154 226.823 28.9296 227.523 28.5581C228.222 28.1866 228.943 27.5419 229.686 26.6241L232.145 28.6564C231.074 30.0332 229.948 31.0057 228.768 31.5739C227.61 32.1202 226.321 32.3934 224.9 32.3934ZM226.834 17.5768C225.742 17.5768 224.813 17.9374 224.048 18.6585C223.283 19.3797 222.78 20.3631 222.54 21.6087L222.376 22.4282C223.775 22.3627 224.911 22.2534 225.785 22.1004C226.681 21.9256 227.37 21.718 227.85 21.4776C228.353 21.2372 228.692 20.9531 228.867 20.6253C229.041 20.2975 229.129 19.926 229.129 19.5108C229.129 19.1175 229.052 18.8006 228.899 18.5602C228.768 18.298 228.593 18.1013 228.375 17.9702C228.156 17.8172 227.905 17.7188 227.621 17.6751C227.359 17.6096 227.096 17.5768 226.834 17.5768Z" fill="white"/>
<defs>
<clipPath id="clip0_3505_18085">
<rect width="40" height="40" fill="white"/>
</clipPath>
</defs>
</svg>
